@startuml 演習6‐5‐1
class 光センサー
class 右モータ
class 左モータ
class CPU
class 電源SW

class ライントレーサー {
  - 光センサー: 光センサー
  - 右モータ: 右モータ
  - 左モータ: 左モータ
  - CPU: CPU
  - 電源SW: 電源SW
  + 電源ON(): void
  + 電源OFF(): void
  + ライン上判定(): void
  + 右旋回(): void
  + 左旋回(): void
}

ライントレーサー "1"--"1" 光センサー
ライントレーサー "1"--"1" 右モータ
ライントレーサー "1"--"1" 左モータ
ライントレーサー "1"--"1" CPU
ライントレーサー "1"--"1" 電源SW
@enduml
