@startuml 演習6‐3‐2
[*] -right-> メニュー画面

メニュー画面 --> 予約と確認 : 名前と電話番号を入力し、登録ボタンを押す
予約と確認 --> メニュー画面 : 名前か電話番号を入力し、取り消しボタンを押す
予約と確認 -right--> あなたの順番 : 名前、電話番号が記録
予約と確認 -right-> あなたの順番 : 名前か電話番号を入力し、確認ボタンを押す
あなたの順番 -down-> メニュー画面 : あなたの電話番号を表示
メニュー画面 -down-> 今の順番 : 患者の順番を表示
今の順番 -right-> メニュー画面 : 看護士が患者番号を一つ増やす

メニュー画面 -right-> [*]
@enduml